<svg width="192" height="40" fill="none" xmlns="http://www.w3.org/2000/svg">
  <rect width="52.102" height="40" rx="4" fill="#E2B65C"/>
  <path d="M16.5 20.117h-2.941v-2.062h2.18c.507 0 .917-.082 1.23-.246.312-.172.543-.415.691-.727.149-.32.223-.695.223-1.125 0-.32-.086-.617-.258-.89-.164-.274-.418-.493-.762-.657-.343-.164-.781-.246-1.312-.246-.406 0-.778.066-1.114.2a1.805 1.805 0 0 0-.796.585c-.196.25-.293.563-.293.938H9.246c0-.766.168-1.45.504-2.051a4.759 4.759 0 0 1 1.371-1.535 6.504 6.504 0 0 1 2.016-.961A8.466 8.466 0 0 1 15.55 11c.976 0 1.86.105 2.648.316.79.204 1.465.508 2.028.914a4.1 4.1 0 0 1 1.312 1.524c.305.601.457 1.3.457 2.098 0 .585-.133 1.136-.398 1.652a4.09 4.09 0 0 1-1.114 1.36c-.484.39-1.066.698-1.746.925-.672.219-1.418.328-2.238.328Zm-2.941-1.043H16.5c.914 0 1.727.098 2.438.293.71.195 1.312.48 1.804.856.5.375.88.84 1.137 1.394.258.547.387 1.176.387 1.887 0 .797-.168 1.508-.504 2.133a4.53 4.53 0 0 1-1.395 1.57c-.601.43-1.312.754-2.133.973-.812.218-1.707.328-2.683.328-.79 0-1.574-.094-2.356-.281a7.272 7.272 0 0 1-2.11-.891A4.689 4.689 0 0 1 9.563 25.8C9.188 25.176 9 24.426 9 23.55h4.125c0 .344.102.652.305.926.21.273.5.488.867.644.367.156.785.235 1.254.235.547 0 1.011-.087 1.394-.258.39-.172.688-.407.89-.703.204-.297.306-.625.306-.985 0-.422-.051-.777-.153-1.066a1.64 1.64 0 0 0-.457-.715 1.735 1.735 0 0 0-.761-.399 3.718 3.718 0 0 0-1.032-.128h-2.18v-2.028ZM26.73 11.223h3.352l3.809 11.87 3.808-11.87h3.352L35.25 28.285h-2.719l-5.8-17.062Zm-2.039 0h3.47l.644 13.078v3.984H24.69V11.223Zm14.93 0h3.48v17.062h-4.124v-3.984l.644-13.078Z" fill="#2D2A2A"/>
  <path d="M70.684 19.684h-2.207V18.13h1.757c.515 0 .931-.078 1.25-.235.32-.162.554-.39.704-.683.15-.293.224-.638.224-1.035 0-.326-.085-.625-.254-.899-.163-.273-.416-.491-.761-.654-.346-.17-.785-.254-1.319-.254-.404 0-.771.072-1.103.215a1.91 1.91 0 0 0-.791.605c-.196.254-.293.564-.293.928h-2.92c0-.625.133-1.185.4-1.68a3.85 3.85 0 0 1 1.113-1.27 5.207 5.207 0 0 1 1.641-.8 6.873 6.873 0 0 1 1.953-.273c.8 0 1.524.088 2.168.263.645.17 1.198.424 1.66.762.462.339.817.759 1.065 1.26.247.501.37 1.084.37 1.748 0 .488-.11.947-.331 1.377-.222.43-.537.807-.948 1.133-.41.325-.901.582-1.474.771a6.261 6.261 0 0 1-1.904.274Zm-2.207-.85h2.207c.774 0 1.461.081 2.06.244.606.163 1.117.4 1.533.713a3 3 0 0 1 .957 1.162c.222.456.332.98.332 1.572 0 .665-.136 1.254-.41 1.768-.267.514-.648.95-1.142 1.309-.489.358-1.068.628-1.739.81a8.288 8.288 0 0 1-2.197.274 7.904 7.904 0 0 1-1.904-.235 5.826 5.826 0 0 1-1.719-.742 3.79 3.79 0 0 1-1.23-1.28c-.306-.52-.46-1.145-.46-1.874h2.94c0 .345.101.66.303.947.202.28.482.505.84.674.358.163.768.244 1.23.244.54 0 1-.085 1.377-.254.384-.17.674-.4.87-.693.201-.3.302-.629.302-.987 0-.384-.052-.71-.156-.976a1.59 1.59 0 0 0-.46-.655 1.826 1.826 0 0 0-.751-.38 4.004 4.004 0 0 0-1.026-.118h-1.757v-1.523Zm14.785 5.283V19.41a2.07 2.07 0 0 0-.166-.869 1.236 1.236 0 0 0-.518-.576c-.228-.137-.524-.205-.889-.205-.312 0-.582.055-.81.166a1.172 1.172 0 0 0-.527.459 1.268 1.268 0 0 0-.186.693h-2.813c0-.45.105-.875.313-1.28a3.19 3.19 0 0 1 .908-1.064c.397-.312.87-.556 1.416-.732a6.112 6.112 0 0 1 1.856-.264c.82 0 1.55.137 2.187.41.638.274 1.14.684 1.504 1.23.371.548.557 1.231.557 2.052v4.521c0 .58.036 1.055.107 1.426.072.364.176.684.313.957v.166h-2.842a4.063 4.063 0 0 1-.313-1.074 8.854 8.854 0 0 1-.097-1.309Zm.37-4.053.02 1.592H82.08c-.371 0-.693.043-.967.127a1.798 1.798 0 0 0-.674.361c-.175.15-.305.326-.39.528a1.825 1.825 0 0 0-.117.664c0 .24.055.459.166.654.11.189.27.339.478.45.209.104.453.156.733.156.423 0 .79-.085 1.103-.254.313-.17.553-.378.723-.625.175-.248.267-.482.273-.703l.742 1.191a4.828 4.828 0 0 1-.43.83 3.88 3.88 0 0 1-.673.81 3.474 3.474 0 0 1-.986.616c-.385.156-.84.234-1.368.234-.67 0-1.279-.133-1.826-.4a3.33 3.33 0 0 1-1.289-1.123 2.949 2.949 0 0 1-.469-1.64c0-.554.105-1.046.313-1.475.208-.43.514-.791.918-1.084.41-.3.921-.524 1.533-.674.612-.156 1.322-.235 2.129-.235h1.63Zm17.491 1.221v.205c0 .762-.085 1.462-.254 2.1a4.976 4.976 0 0 1-.742 1.65 3.5 3.5 0 0 1-1.22 1.075c-.483.253-1.04.38-1.67.38-.587 0-1.094-.11-1.524-.332a3.177 3.177 0 0 1-1.074-.947 5.598 5.598 0 0 1-.703-1.426 10.208 10.208 0 0 1-.391-1.767v-1.69a11.35 11.35 0 0 1 .39-1.885 5.827 5.827 0 0 1 .694-1.533 3.19 3.19 0 0 1 1.074-1.015c.423-.241.928-.362 1.514-.362.508 0 .967.088 1.377.264.416.176.781.426 1.094.752.319.325.582.72.791 1.181.214.456.374.967.478 1.534a9.44 9.44 0 0 1 .166 1.816Zm-2.822.205v-.205c0-.364-.023-.713-.069-1.045a4.75 4.75 0 0 0-.195-.927 2.48 2.48 0 0 0-.342-.723 1.505 1.505 0 0 0-.517-.479 1.355 1.355 0 0 0-.694-.175c-.455 0-.83.09-1.123.273-.286.176-.501.43-.644.762-.137.325-.215.71-.235 1.152v2.52c.026.377.108.706.245.986.143.273.358.488.644.644.293.15.67.225 1.133.225.332 0 .612-.075.84-.225.234-.15.42-.36.556-.634.144-.274.244-.59.303-.948a6.85 6.85 0 0 0 .098-1.2Zm-10.469 0v-.205c0-.644.055-1.25.166-1.816.11-.567.27-1.078.479-1.534.214-.462.478-.856.79-1.181a3.279 3.279 0 0 1 1.085-.752 3.533 3.533 0 0 1 1.386-.264c.58 0 1.081.12 1.504.362.423.24.778.579 1.065 1.015.286.436.517.948.693 1.533.176.58.31 1.208.4 1.885v1.611a11.013 11.013 0 0 1-.4 1.807 5.334 5.334 0 0 1-.703 1.445c-.287.41-.641.73-1.065.957-.423.228-.927.342-1.513.342-.625 0-1.182-.127-1.67-.38a3.501 3.501 0 0 1-1.22-1.075 5.249 5.249 0 0 1-.743-1.65 8.178 8.178 0 0 1-.254-2.1Zm2.813-.205v.205c0 .436.029.837.087 1.201.066.358.166.674.303.948.143.267.329.475.557.625.228.15.508.224.84.224.468 0 .846-.078 1.132-.234a1.5 1.5 0 0 0 .655-.664c.143-.287.221-.628.234-1.026v-2.441c-.013-.443-.091-.827-.234-1.152a1.565 1.565 0 0 0-.635-.762c-.287-.182-.664-.273-1.133-.273-.332 0-.615.087-.85.263a1.918 1.918 0 0 0-.556.723 4.278 4.278 0 0 0-.303 1.074 8.097 8.097 0 0 0-.098 1.29Zm2.402 9.277V11.5h2.822v19.063h-2.822Zm15.547-6.445V19.41a2.08 2.08 0 0 0-.166-.869 1.236 1.236 0 0 0-.518-.576c-.228-.137-.524-.205-.889-.205-.312 0-.582.055-.81.166a1.167 1.167 0 0 0-.527.459 1.266 1.266 0 0 0-.186.693h-2.812c0-.45.104-.875.312-1.28.208-.403.511-.758.908-1.064a4.48 4.48 0 0 1 1.416-.732 6.116 6.116 0 0 1 1.856-.264c.82 0 1.549.137 2.187.41a3.34 3.34 0 0 1 1.504 1.23c.371.548.557 1.231.557 2.052v4.521c0 .58.036 1.055.107 1.426.072.364.176.684.313.957v.166h-2.842a4.066 4.066 0 0 1-.313-1.074 8.866 8.866 0 0 1-.097-1.309Zm.371-4.053.019 1.592h-1.572a3.29 3.29 0 0 0-.967.127 1.805 1.805 0 0 0-.674.361c-.175.15-.306.326-.39.528a1.827 1.827 0 0 0-.117.664c0 .24.055.459.166.654.11.189.27.339.478.45.209.104.453.156.733.156.423 0 .791-.085 1.103-.254.313-.17.554-.378.723-.625.176-.248.267-.482.273-.703l.742 1.191a4.83 4.83 0 0 1-.429.83 3.9 3.9 0 0 1-.674.81 3.482 3.482 0 0 1-.986.616c-.385.156-.84.234-1.368.234a4.11 4.11 0 0 1-1.826-.4 3.332 3.332 0 0 1-1.289-1.123 2.953 2.953 0 0 1-.469-1.64c0-.554.105-1.046.313-1.475.208-.43.514-.791.918-1.084.41-.3.921-.524 1.533-.674.612-.156 1.322-.235 2.129-.235h1.631Zm7.441-2.1v12.599h-2.812v-14.63h2.607l.205 2.032Zm6.69 3.136v.205c0 .768-.091 1.48-.274 2.138a5.343 5.343 0 0 1-.781 1.72c-.345.48-.775.858-1.289 1.132-.508.267-1.094.4-1.758.4-.644 0-1.204-.13-1.68-.39a3.505 3.505 0 0 1-1.201-1.094 6.32 6.32 0 0 1-.771-1.65 12.927 12.927 0 0 1-.449-2.012v-.537c.104-.768.253-1.472.449-2.11a6.079 6.079 0 0 1 .771-1.67 3.499 3.499 0 0 1 1.192-1.103c.475-.26 1.032-.39 1.67-.39.67 0 1.259.126 1.767.38.515.254.944.619 1.289 1.094.352.475.615 1.042.791 1.7a8.15 8.15 0 0 1 .274 2.187Zm-2.823.205V21.1c0-.45-.039-.863-.117-1.24a3.22 3.22 0 0 0-.351-1.006 1.718 1.718 0 0 0-.625-.665c-.254-.162-.563-.244-.928-.244-.384 0-.713.062-.986.186a1.653 1.653 0 0 0-.655.537 2.5 2.5 0 0 0-.381.84 5.505 5.505 0 0 0-.156 1.103v1.358c.033.482.124.915.274 1.299.149.377.381.677.693.898.313.221.723.332 1.23.332.372 0 .684-.081.938-.244.254-.17.459-.4.615-.694.163-.292.277-.631.342-1.015.072-.384.107-.798.107-1.24Zm11.065-9.024h2.48l3.653 10.44 3.652-10.44h2.481L138.467 26.5h-1.992l-5.137-14.219Zm-1.338 0h2.471l.449 10.176V26.5H130V12.281Zm12.471 0h2.48V26.5h-2.93v-4.043l.45-10.176Zm7.675 10.293 3.545-6.64h2.813V26.5h-2.813v-6.65l-3.545 6.65h-2.812V15.934h2.812v6.64Zm11.338-4.61v12.599h-2.812v-14.63h2.607l.205 2.032Zm6.69 3.136v.205c0 .768-.091 1.48-.274 2.138a5.322 5.322 0 0 1-.781 1.72c-.345.48-.775.858-1.289 1.132-.508.267-1.094.4-1.758.4-.644 0-1.204-.13-1.679-.39a3.499 3.499 0 0 1-1.202-1.094 6.32 6.32 0 0 1-.771-1.65 13.043 13.043 0 0 1-.449-2.012v-.537c.104-.768.254-1.472.449-2.11a6.079 6.079 0 0 1 .771-1.67 3.499 3.499 0 0 1 1.192-1.103c.475-.26 1.032-.39 1.67-.39.67 0 1.259.126 1.767.38.515.254.944.619 1.289 1.094.352.475.616 1.042.791 1.7a8.15 8.15 0 0 1 .274 2.187Zm-2.822.205V21.1c0-.45-.04-.863-.118-1.24a3.195 3.195 0 0 0-.351-1.006 1.71 1.71 0 0 0-.625-.665c-.254-.162-.563-.244-.928-.244-.384 0-.713.062-.986.186a1.653 1.653 0 0 0-.655.537 2.48 2.48 0 0 0-.38.84 5.43 5.43 0 0 0-.157 1.103v1.358c.033.482.124.915.274 1.299.15.377.381.677.693.898.313.221.723.332 1.231.332.371 0 .683-.081.937-.244.254-.17.459-.4.615-.694.163-.292.277-.631.342-1.015.072-.384.108-.798.108-1.24Zm9.277.156h-2.09V20.2h1.494c.352 0 .632-.049.84-.146a.921.921 0 0 0 .459-.41c.098-.183.147-.388.147-.616 0-.201-.043-.394-.127-.576a.947.947 0 0 0-.43-.459c-.202-.124-.488-.185-.86-.185a2.31 2.31 0 0 0-.82.136c-.234.091-.42.225-.556.4a.975.975 0 0 0-.196.616h-2.822c0-.67.192-1.244.576-1.719.384-.482.899-.85 1.543-1.103a5.608 5.608 0 0 1 2.119-.391c.671 0 1.276.068 1.817.205a4.2 4.2 0 0 1 1.386.586c.384.26.677.583.879.967.209.378.313.817.313 1.318 0 .358-.085.697-.254 1.016-.169.319-.414.602-.733.85a3.65 3.65 0 0 1-1.162.566 5.227 5.227 0 0 1-1.523.205Zm-2.09-.703h2.09c.631 0 1.185.062 1.66.185.482.117.885.293 1.211.528.326.234.57.524.732.869.17.338.254.729.254 1.172 0 .501-.11.95-.332 1.347-.221.391-.537.723-.947.996-.41.274-.895.482-1.455.625a7.443 7.443 0 0 1-1.846.215 6.348 6.348 0 0 1-2.09-.351c-.677-.235-1.233-.596-1.67-1.084-.429-.489-.644-1.117-.644-1.885h2.822c0 .221.065.43.196.625.13.195.325.352.585.469.261.11.583.166.967.166s.694-.062.928-.186c.234-.123.404-.286.508-.488.11-.208.166-.423.166-.645 0-.312-.062-.566-.186-.761a1.02 1.02 0 0 0-.547-.43c-.24-.091-.543-.137-.908-.137h-1.494v-1.23Zm7.227.566v-.205c0-.775.11-1.488.332-2.139a4.944 4.944 0 0 1 .966-1.709 4.337 4.337 0 0 1 1.563-1.123c.618-.273 1.328-.41 2.129-.41.801 0 1.514.137 2.139.41a4.312 4.312 0 0 1 1.572 1.123 4.87 4.87 0 0 1 .976 1.71 6.59 6.59 0 0 1 .332 2.138v.205c0 .768-.11 1.481-.332 2.139a4.989 4.989 0 0 1-.976 1.709 4.329 4.329 0 0 1-1.563 1.123c-.618.267-1.328.4-2.129.4-.8 0-1.513-.133-2.138-.4a4.427 4.427 0 0 1-1.573-1.123 5.066 5.066 0 0 1-.966-1.71 6.647 6.647 0 0 1-.332-2.138Zm2.812-.205v.205c0 .443.039.856.117 1.24.078.385.202.723.371 1.016.176.287.404.511.684.674.28.163.622.244 1.025.244.391 0 .726-.081 1.006-.244.28-.163.505-.388.674-.674.169-.293.293-.631.371-1.015.085-.385.127-.798.127-1.24v-.206c0-.43-.042-.833-.127-1.21a3.188 3.188 0 0 0-.381-1.016 1.888 1.888 0 0 0-.674-.704c-.279-.169-.618-.253-1.015-.253-.397 0-.736.084-1.016.253-.273.17-.498.404-.674.704a3.355 3.355 0 0 0-.371 1.015 5.98 5.98 0 0 0-.117 1.211Z" fill="#E2B65C"/>
</svg>
